<svg width="93" height="20" xmlns="http://www.w3.org/2000/svg">
 <g>
  <title>background</title>
  <rect x="-1" y="-1" width="95" height="22" id="canvas_background" fill="none"/>
 </g>

 <g>
  <title>Layer 1</title>
  <path d="m3.376,4.816l0,5.112l8.112,0l0,2.64l-8.112,0l0,6.432l-3.12,0l0,-16.8l12.264,0l0,2.616l-9.144,0zm11.8733,-3.624l3,0l0,17.808l-3,0l0,-17.808zm6.9375,4.992l3,0l0,12.816l-3,0l0,-12.816zm1.512,-2.112c-0.544,0 -1,-0.168 -1.368,-0.504c-0.368,-0.352 -0.552,-0.784 -0.552,-1.296c0,-0.512 0.184,-0.936 0.552,-1.272c0.368,-0.352 0.824,-0.528 1.368,-0.528c0.544,0 1,0.168 1.368,0.504c0.368,0.32 0.552,0.728 0.552,1.224c0,0.528 -0.184,0.976 -0.552,1.344c-0.352,0.352 -0.808,0.528 -1.368,0.528zm13.5855,14.928l-3.288,-4.44l-3.3121,4.44l-3.3119,0l4.992,-6.504l-4.776,-6.312l3.336,0l3.144,4.2l3.144,-4.2l3.24,0l-4.8,6.264l5.016,6.552l-3.384,0z" fill="#33373F" id="svg_1"/>
  <path d="m58.0981,2.2l0,16.8l-3.12,0l0,-7.2l-8.688,0l0,7.2l-3.12,0l0,-16.8l3.12,0l0,6.936l8.688,0l0,-6.936l3.12,0zm16.6217,3.984l0,12.816l-2.856,0l0,-1.632c-0.48,0.576 -1.08,1.024 -1.8,1.344c-0.72,0.304 -1.496,0.456 -2.328,0.456c-1.712,0 -3.064,-0.472 -4.056,-1.416c-0.976,-0.96 -1.464,-2.376 -1.464,-4.248l0,-7.32l3,0l0,6.912c0,1.152 0.256,2.016 0.768,2.592c0.528,0.56 1.272,0.84 2.232,0.84c1.072,0 1.92,-0.328 2.544,-0.984c0.64,-0.672 0.96,-1.632 0.96,-2.88l0,-6.48l3,0zm11.0319,-0.144c1.248,0 2.36,0.272 3.336,0.816c0.992,0.544 1.768,1.312 2.328,2.304c0.56,0.992 0.84,2.136 0.84,3.432c0,1.296 -0.28,2.448 -0.84,3.456c-0.56,0.992 -1.336,1.76 -2.328,2.304c-0.976,0.544 -2.088,0.816 -3.336,0.816c-0.88,0 -1.688,-0.152 -2.424,-0.456c-0.72,-0.304 -1.328,-0.76 -1.824,-1.368l0,1.656l-2.856,0l0,-17.808l3,0l0,6.552c0.512,-0.56 1.112,-0.984 1.8,-1.272c0.704,-0.288 1.472,-0.432 2.304,-0.432zm-0.336,10.56c1.104,0 2.008,-0.368 2.712,-1.104c0.72,-0.736 1.08,-1.704 1.08,-2.904c0,-1.2 -0.36,-2.168 -1.08,-2.904c-0.704,-0.736 -1.608,-1.104 -2.712,-1.104c-0.72,0 -1.368,0.168 -1.944,0.504c-0.576,0.32 -1.032,0.784 -1.368,1.392c-0.336,0.608 -0.504,1.312 -0.504,2.112c0,0.8 0.168,1.504 0.504,2.112c0.336,0.608 0.792,1.08 1.368,1.416c0.576,0.32 1.224,0.48 1.944,0.48z" fill="#795AB0" id="svg_2"/>
  <rect fill="#fff" stroke="#000" stroke-width="1.5" x="-3" y="-9.5" width="124" height="67" id="svg_3"/>
  <text xml:space="preserve" text-anchor="start" font-family="Helvetica, Arial, sans-serif" font-size="24" id="svg_4" y="18.453125" x="0" stroke-width="0" stroke="#000" fill="#ff0000">3TK</text>
  <text xml:space="preserve" text-anchor="start" font-family="Helvetica, Arial, sans-serif" font-size="24" id="svg_5" y="18.453125" x="46" stroke-width="0" stroke="#000" fill="#000000">图库</text>
 </g>
</svg>